<?xml version="1.0" encoding="UTF-8" standalone="no"?>
<!-- Created with Inkscape (http://www.inkscape.org/) -->

<svg
   xmlns:dc="http://purl.org/dc/elements/1.1/"
   xmlns:cc="http://creativecommons.org/ns#"
   xmlns:rdf="http://www.w3.org/1999/02/22-rdf-syntax-ns#"
   xmlns:svg="http://www.w3.org/2000/svg"
   xmlns="http://www.w3.org/2000/svg"
   xmlns:sodipodi="http://sodipodi.sourceforge.net/DTD/sodipodi-0.dtd"
   xmlns:inkscape="http://www.inkscape.org/namespaces/inkscape"
   width="41.020084mm"
   height="18.201988mm"
   viewBox="0 0 49.224103 21.842384"
   version="1.1"
   id="svg8"
   inkscape:version="0.92.2 2405546, 2018-03-11"
   sodipodi:docname="logo.svg">
  <defs
     id="defs2" />
  <sodipodi:namedview
     id="base"
     pagecolor="#ffffff"
     bordercolor="#666666"
     borderopacity="1.0"
     inkscape:pageopacity="0.0"
     inkscape:pageshadow="2"
     inkscape:zoom="2.8"
     inkscape:cx="-48.482041"
     inkscape:cy="15.44875"
     inkscape:document-units="mm"
     inkscape:current-layer="layer1"
     showgrid="true"
     showborder="true"
     showguides="true"
     scale-x="1.2"
     fit-margin-top="0"
     fit-margin-left="0"
     fit-margin-right="2"
     fit-margin-bottom="0"
     inkscape:guide-bbox="true"
     inkscape:snap-grids="false"
     inkscape:snap-to-guides="false"
     inkscape:window-width="1920"
     inkscape:window-height="1145"
     inkscape:window-x="0"
     inkscape:window-y="27"
     inkscape:window-maximized="1">
    <inkscape:grid
       type="xygrid"
       id="grid3713"
       originx="-12.6124"
       originy="-263.62613"
       visible="false" />
    <sodipodi:guide
       position="-1.4998977,11.011293"
       orientation="0,1"
       id="guide3793"
       inkscape:locked="false" />
    <sodipodi:guide
       position="39.843222,12.600365"
       orientation="0,1"
       id="guide4754"
       inkscape:locked="false" />
    <sodipodi:guide
       position="16.229795,9.6650562"
       orientation="1,0"
       id="guide4756"
       inkscape:locked="false" />
    <sodipodi:guide
       position="19.873179,4.4219176"
       orientation="0,1"
       id="guide4771"
       inkscape:locked="false" />
  </sodipodi:namedview>
  <metadata
     id="metadata5">
    <rdf:RDF>
      <cc:Work
         rdf:about="">
        <dc:format>image/svg+xml</dc:format>
        <dc:type
           rdf:resource="http://purl.org/dc/dcmitype/StillImage" />
        <dc:title />
      </cc:Work>
    </rdf:RDF>
  </metadata>
  <g
     inkscape:label="Calque 1"
     inkscape:groupmode="layer"
     id="layer1"
     transform="translate(-12.612397,-70.931394)"
     style="display:inline">
    <text
       xml:space="preserve"
       style="font-style:normal;font-weight:normal;font-size:10.58333302px;line-height:1.25;font-family:sans-serif;letter-spacing:0px;word-spacing:0px;fill:#000000;fill-opacity:1;stroke:none;stroke-width:0.26458332"
       x="0"
       y="127.66666"
       id="text3717"><tspan
         sodipodi:role="line"
         id="tspan3715"
         x="0"
         y="137.03043"
         style="stroke-width:0.26458332" /></text>
    <flowRoot
       xml:space="preserve"
       id="flowRoot3781"
       style="font-style:normal;font-variant:normal;font-weight:normal;font-stretch:normal;font-size:40px;line-height:1.25;font-family:'Fira Mono for Powerline';-inkscape-font-specification:'Fira Mono for Powerline';letter-spacing:0px;word-spacing:0px;fill:#000000;fill-opacity:1;stroke:none"
       transform="matrix(0.3175,0,0,0.3175,20.314497,94.170077)"><flowRegion
         id="flowRegion3783"
         style="font-style:normal;font-variant:normal;font-weight:normal;font-stretch:normal;font-family:'Fira Mono for Powerline';-inkscape-font-specification:'Fira Mono for Powerline'"><rect
           id="rect3785"
           width="110"
           height="55"
           x="-8.9826698"
           y="-9.0790367"
           style="font-style:normal;font-variant:normal;font-weight:normal;font-stretch:normal;font-family:'Fira Mono for Powerline';-inkscape-font-specification:'Fira Mono for Powerline'" /></flowRegion><flowPara
         id="flowPara3787" /></flowRoot>    <flowRoot
       xml:space="preserve"
       id="flowRoot3795"
       style="font-style:normal;font-variant:normal;font-weight:normal;font-stretch:normal;font-size:40px;line-height:1.25;font-family:'Fira Mono for Powerline';-inkscape-font-specification:'Fira Mono for Powerline';letter-spacing:0px;word-spacing:0px;fill:#000000;fill-opacity:1;stroke:none"
       transform="matrix(0.3175,0,0,0.3175,20.314497,94.170077)"><flowRegion
         id="flowRegion3797"
         style="font-style:normal;font-variant:normal;font-weight:normal;font-stretch:normal;font-family:'Fira Mono for Powerline';-inkscape-font-specification:'Fira Mono for Powerline'"><rect
           id="rect3799"
           width="200"
           height="60"
           x="-38.98267"
           y="-49.079037"
           style="font-style:normal;font-variant:normal;font-weight:normal;font-stretch:normal;font-family:'Fira Mono for Powerline';-inkscape-font-specification:'Fira Mono for Powerline'" /></flowRegion><flowPara
         id="flowPara3801" /></flowRoot>    <flowRoot
       xml:space="preserve"
       id="flowRoot3830"
       style="font-style:normal;font-variant:normal;font-weight:normal;font-stretch:normal;font-size:40px;line-height:1.25;font-family:Helvetica;-inkscape-font-specification:Helvetica;letter-spacing:0px;word-spacing:0px;fill:#000000;fill-opacity:1;stroke:none"
       transform="matrix(0.3175,0,0,0.3175,20.314497,94.170077)"><flowRegion
         id="flowRegion3832"><rect
           id="rect3834"
           width="121.21831"
           height="47.855976"
           x="-3.0304577"
           y="-47.542938" /></flowRegion><flowPara
         id="flowPara3836" /></flowRoot>    <text
       xml:space="preserve"
       style="font-style:normal;font-variant:normal;font-weight:normal;font-stretch:normal;font-size:12.69999981px;line-height:1.25;font-family:Helvetica;-inkscape-font-specification:Helvetica;letter-spacing:0px;word-spacing:0px;fill:#000000;fill-opacity:1;stroke:none;stroke-width:0.3175"
       x="55.714348"
       y="94.63028"
       id="text3840"><tspan
         sodipodi:role="line"
         id="tspan3838"
         x="55.714348"
         y="106.44589"
         style="stroke-width:0.3175" /></text>
    <flowRoot
       xml:space="preserve"
       id="flowRoot3842"
       style="font-style:normal;font-variant:normal;font-weight:normal;font-stretch:normal;font-size:40px;line-height:1.25;font-family:Helvetica;-inkscape-font-specification:Helvetica;letter-spacing:0px;word-spacing:0px;fill:#000000;fill-opacity:1;stroke:none"
       transform="matrix(0.3175,0,0,0.3175,20.314497,94.170077)"><flowRegion
         id="flowRegion3844"><rect
           id="rect3846"
           width="176.60715"
           height="41.785713"
           x="-11.785714"
           y="-50.062317" /></flowRegion><flowPara
         id="flowPara3848" /></flowRoot>    <path
       style="fill:#54ffa9;stroke-width:0.31749997"
       d="m 26.460233,70.931394 -10.921503,2.926333 -2.926333,10.920883 7.99517,7.99517 10.921503,-2.926333 2.926333,-10.921503 z m -3.656211,6.939111 h 5.320605 v 1.054199 h -4.067968 v 2.728515 h 3.671093 v 1.0542 h -3.671093 v 4.421435 h -1.252637 z m 9.79165,2.145605 c 0.07855,0 0.165364,0.0062 0.260449,0.0186 0.09508,0.0083 0.200505,0.02274 0.31626,0.04341 l 0.0062,1.172021 c -0.128157,-0.07441 -0.268717,-0.128157 -0.421679,-0.16123 -0.148828,-0.03721 -0.314193,-0.05581 -0.496094,-0.05581 -0.644922,0 -1.141015,0.21084 -1.488281,0.63252 -0.343131,0.417545 -0.514697,1.019059 -0.514697,1.804541 v 3.658691 h -1.147217 v -6.945312 h 1.147217 v 1.079003 c 0.239778,-0.421679 0.551904,-0.733805 0.936377,-0.936376 0.384472,-0.206706 0.851627,-0.310059 1.401465,-0.310058 z"
       id="path3924"
       inkscape:connector-curvature="0" />
    <g
       aria-label="angi"
       style="font-style:normal;font-variant:normal;font-weight:normal;font-stretch:normal;font-size:12.69999981px;line-height:1.25;font-family:'Fira Mono for Powerline';-inkscape-font-specification:'Fira Mono for Powerline';letter-spacing:0px;word-spacing:0px;display:inline;fill:#5c5c5c;fill-opacity:1;stroke:none;stroke-width:0.3175"
       id="text3828">
      <path
         d="m 37.540158,83.654378 q -1.382861,0 -1.916162,0.31626 -0.533301,0.316259 -0.533301,1.079003 0,0.607715 0.396875,0.967383 0.403076,0.353467 1.091406,0.353467 0.94878,0 1.519287,-0.669727 0.576709,-0.675927 0.576709,-1.792138 v -0.254248 z m 2.27583,-0.471289 v 3.962549 h -1.141016 v -1.0542 q -0.390673,0.63252 -0.973584,0.936377 -0.58291,0.297656 -1.426269,0.297656 -1.066602,0 -1.699121,-0.595312 -0.626318,-0.601514 -0.626318,-1.606103 0,-1.172022 0.781347,-1.767334 0.787549,-0.595313 2.344043,-0.595313 h 1.599902 v -0.111621 q 0,-0.787549 -0.520898,-1.21543 -0.514697,-0.434082 -1.451074,-0.434082 -0.595313,0 -1.159619,0.142627 -0.564307,0.142627 -1.085205,0.427881 v -1.054199 q 0.626318,-0.241846 1.215429,-0.359668 0.589112,-0.124024 1.147217,-0.124024 1.506885,0 2.251025,0.781348 0.744141,0.781348 0.744141,2.368848 z"
         style="font-style:normal;font-variant:normal;font-weight:normal;font-stretch:normal;font-family:'Adobe Helvetica';-inkscape-font-specification:'Adobe Helvetica';fill:#5c5c5c;fill-opacity:1;stroke-width:0.3175"
         id="path843" />
      <path
         d="m 47.945724,82.953645 v 4.191993 h -1.141015 v -4.154786 q 0,-0.985986 -0.384473,-1.475878 -0.384472,-0.489893 -1.153418,-0.489893 -0.923974,0 -1.457275,0.589111 -0.533301,0.589112 -0.533301,1.606104 v 3.925342 h -1.147217 v -6.945313 h 1.147217 v 1.079004 q 0.409277,-0.626318 0.961182,-0.936377 0.558105,-0.310059 1.283642,-0.310059 1.196826,0 1.810742,0.744141 0.613916,0.73794 0.613916,2.176611 z"
         style="font-style:normal;font-variant:normal;font-weight:normal;font-stretch:normal;font-family:'Adobe Helvetica';-inkscape-font-specification:'Adobe Helvetica';fill:#5c5c5c;fill-opacity:1;stroke-width:0.3175"
         id="path845" />
      <path
         d="m 54.80422,83.592366 q 0,-1.240234 -0.514697,-1.922363 -0.508496,-0.682129 -1.432471,-0.682129 -0.917773,0 -1.432471,0.682129 -0.508496,0.682129 -0.508496,1.922363 0,1.234033 0.508496,1.916162 0.514698,0.682129 1.432471,0.682129 0.923975,0 1.432471,-0.682129 0.514697,-0.682129 0.514697,-1.916162 z m 1.141016,2.691309 q 0,1.773535 -0.787549,2.635498 -0.787549,0.868164 -2.412256,0.868164 -0.601514,0 -1.134814,-0.09302 -0.533301,-0.08682 -1.035596,-0.272851 v -1.11001 q 0.502295,0.272851 0.992187,0.403076 0.489893,0.130225 0.998389,0.130225 1.122412,0 1.680518,-0.589112 0.558105,-0.58291 0.558105,-1.767334 v -0.564306 q -0.353467,0.613916 -0.905371,0.917773 -0.551904,0.303858 -1.32085,0.303858 -1.277441,0 -2.058789,-0.973584 -0.781347,-0.973584 -0.781347,-2.579688 0,-1.612305 0.781347,-2.585889 0.781348,-0.973584 2.058789,-0.973584 0.768946,0 1.32085,0.303858 0.551904,0.303857 0.905371,0.917773 v -1.054199 h 1.141016 z"
         style="font-style:normal;font-variant:normal;font-weight:normal;font-stretch:normal;font-family:'Adobe Helvetica';-inkscape-font-specification:'Adobe Helvetica';fill:#5c5c5c;fill-opacity:1;stroke-width:0.3175"
         id="path847" />
      <path
         d="m 58.29548,80.200325 h 1.141016 v 6.945313 H 58.29548 Z m 0,-2.703711 h 1.141016 v 1.444873 H 58.29548 Z"
         style="font-style:normal;font-variant:normal;font-weight:normal;font-stretch:normal;font-family:'Adobe Helvetica';-inkscape-font-specification:'Adobe Helvetica';fill:#5c5c5c;fill-opacity:1;stroke-width:0.3175"
         id="path849" />
    </g>
  </g>
</svg>
